<?xml version="1.0" encoding="utf-8"?>
<!-- Generator: Adobe Illustrator 26.4.1, SVG Export Plug-In . SVG Version: 6.00 Build 0)  -->
<svg version="1.1" id="Layer_1" xmlns="http://www.w3.org/2000/svg" xmlns:xlink="http://www.w3.org/1999/xlink" x="0px" y="0px"
	 viewBox="0 0 841.89 595.28" style="enable-background:new 0 0 841.89 595.28;" xml:space="preserve">
<style type="text/css">
	.st0{fill:none;}
</style>
<g>
	<path d="M432.64,265.42c6.83,0.04,12.75,0.97,18.19,3.97c8.85,4.88,12.38,14.05,9.19,23.64c-2.51,7.54-7.32,13.45-13.37,18.37
		c-10.32,8.39-22.15,13.15-35.43,14.08c-6.54,0.46-12.96-0.33-18.95-3.24c-9.77-4.74-13.72-13.99-10.39-24.32
		c2.15-6.66,6.25-12.04,11.39-16.64c9.25-8.27,20.09-13.24,32.32-15.23c0.87-0.14,1.74-0.28,2.62-0.35
		C429.9,265.57,431.62,265.48,432.64,265.42z M405.34,311.99c2.01-0.19,4.97-0.34,7.89-0.76c10.52-1.49,20.4-4.96,29.73-10.01
		c4.52-2.44,8.85-5.18,12.09-9.29c3.35-4.24,3.87-8.87,1.56-13.72c-1.65-3.45-4.91-4.8-8.35-5.68c-5.44-1.39-10.95-1.25-16.43-0.3
		c-14.58,2.51-27.38,8.61-37.86,19.19c-2.78,2.81-5.02,6.03-5.83,10.02c-0.74,3.68,0.65,6.58,3.97,8.28
		C395.98,311.73,400.18,311.85,405.34,311.99z M449.59,271.49c-0.34-0.18-0.68-0.36-1.02-0.53c-6.82-3.28-14.04-3.6-21.36-2.7
		c-7.92,0.97-15.32,3.6-22.23,7.56c-7.32,4.2-13.62,9.53-18.05,16.84c-1.39,2.3-2.51,4.72-3.05,7.38c0.17-0.08,0.27-0.2,0.35-0.33
		c2.3-3.81,5.31-7.01,8.68-9.86c9.83-8.31,21.14-13.73,33.55-16.92C434.03,270.97,441.7,270.14,449.59,271.49z M392.11,319.4
		c0.41,0.24,0.66,0.41,0.93,0.54c4.12,2.04,8.51,2.96,13.07,3.16c9.82,0.42,19.03-1.96,27.76-6.32c7.96-3.97,14.82-9.29,19.93-16.67
		c1.94-2.8,3.42-5.81,4.19-9.16c-0.18,0.11-0.3,0.26-0.42,0.4c-2.07,2.53-3.95,5.24-6.24,7.55c-5.84,5.89-12.83,10.19-20.33,13.6
		C418.71,318.1,406.01,321.63,392.11,319.4z"/>
	<path class="st0" d="M405.34,311.99c-5.16-0.14-9.36-0.26-13.23-2.25c-3.32-1.71-4.71-4.6-3.97-8.28c0.8-4,3.05-7.22,5.83-10.02
		c10.48-10.58,23.28-16.68,37.86-19.19c5.49-0.95,10.99-1.09,16.43,0.3c3.44,0.88,6.7,2.23,8.35,5.68
		c2.31,4.85,1.79,9.47-1.56,13.72c-3.25,4.11-7.57,6.84-12.09,9.29c-9.33,5.04-19.21,8.51-29.73,10.01
		C410.3,311.64,407.34,311.8,405.34,311.99z"/>
	<path class="st0" d="M449.59,271.49c-7.9-1.35-15.57-0.52-23.14,1.43c-12.41,3.19-23.72,8.61-33.55,16.92
		c-3.37,2.85-6.38,6.05-8.68,9.86c-0.08,0.13-0.18,0.24-0.35,0.33c0.55-2.66,1.66-5.08,3.05-7.38c4.43-7.31,10.73-12.64,18.05-16.84
		c6.91-3.96,14.31-6.58,22.23-7.56c7.33-0.9,14.54-0.57,21.36,2.7C448.92,271.13,449.25,271.31,449.59,271.49z"/>
	<path class="st0" d="M392.11,319.4c13.9,2.22,26.6-1.3,38.89-6.89c7.51-3.41,14.49-7.71,20.33-13.6c2.29-2.31,4.18-5.02,6.24-7.55
		c0.12-0.15,0.23-0.29,0.42-0.4c-0.77,3.35-2.26,6.36-4.19,9.16c-5.11,7.39-11.97,12.7-19.93,16.67
		c-8.73,4.35-17.93,6.74-27.76,6.32c-4.56-0.2-8.95-1.12-13.07-3.16C392.77,319.81,392.52,319.64,392.11,319.4z"/>
</g>
</svg>
